<?xml version="1.0" encoding="UTF-8"?>
<svg width="129px" height="147px" viewBox="0 0 129 147" version="1.1" xmlns="http://www.w3.org/2000/svg" xmlns:xlink="http://www.w3.org/1999/xlink">
    <!-- Generator: Sketch 43.2 (39069) - http://www.bohemiancoding.com/sketch -->
    <title>Generator Copy 3</title>
    <desc>Created with Sketch.</desc>
    <defs></defs>
    <g id="Page-1" stroke="none" stroke-width="1" fill="none" fill-rule="evenodd">
        <g id="Desktop-HD" transform="translate(-25.000000, -492.000000)">
            <g id="zone-4" transform="translate(0.000000, 314.000000)">
                <g id="Generator-Copy-3" transform="translate(89.500000, 251.500000) scale(-1, 1) translate(-89.500000, -251.500000) translate(25.000000, 178.000000)">
                    <polygon id="Path-3" fill="#555555" points="77.2268962 74.7986112 127.940679 44.611279 50.9156904 0.554852004 0.597539791 30.6658865"></polygon>
                    <polygon id="Path-4" fill="#F8B106" points="128.3515 116.806532 127.961165 44.5886212 77.1876249 74.7687774 77.1876249 146.400374"></polygon>
                    <polygon id="Path-5" fill="#FDCA22" points="0.631694037 30.6813372 1.14319511 103.238145 77.2038071 146.34189 77.2038071 74.769205"></polygon>
                    <polygon id="Path-5" fill="#3A3A3A" points="36 51 36.5115011 123.556808 42.6199622 126.345512 42.6199622 54.7728271"></polygon>
                    <polygon id="Path-4-Copy" fill="#000000" points="128.351739 116.824353 128.351738 112.240124 77.1945586 142.00452 77.1945586 146.418674"></polygon>
                    <polygon id="Path-5-Copy" fill="#2A2929" points="1 98 1 103.121083 77.1931992 146.379215 77.1931992 141.925465"></polygon>
                    <polygon id="Path-6" fill="#000000" transform="translate(105.539828, 96.126039) scale(-1, 1) translate(-105.539828, -96.126039) " points="103.635149 82.2571534 110.079657 81 105.091128 95.6167809 109.370921 94.7340232 103.635149 111.252078 105.255193 97.7455396 101 98.6058413"></polygon>
                </g>
            </g>
        </g>
    </g>
</svg>