<?xml version="1.0" encoding="UTF-8"?>
<svg width="152px" height="149px" viewBox="0 0 152 149" version="1.1" xmlns="http://www.w3.org/2000/svg" xmlns:xlink="http://www.w3.org/1999/xlink">
    <!-- Generator: Sketch 43.2 (39069) - http://www.bohemiancoding.com/sketch -->
    <title>foodtruck roze</title>
    <desc>Created with Sketch.</desc>
    <defs>
        <polygon id="path-1" points="46.6666667 94.4553571 68.451182 75.3871248 68.451182 76.0523033 46.6666667 95.1205357"></polygon>
    </defs>
    <g id="Page-1" stroke="none" stroke-width="1" fill="none" fill-rule="evenodd">
        <g id="Desktop-HD" transform="translate(-306.000000, -501.000000)">
            <g id="zone-4" transform="translate(0.000000, 314.000000)">
                <g id="foodtruck-roze" transform="translate(382.000000, 262.000000) scale(-1, 1) translate(-382.000000, -262.000000) translate(306.000000, 187.000000)">
                    <g id="vracht" transform="translate(22.666667, 0.000000)">
                        <g id="voorwiel-copy" transform="translate(69.333333, 89.799107)">
                            <path d="M10.2220191,26.5111876 C10.2220191,26.5111876 1.96404845,22.5997176 1.69211708,21.7253063 C1.42018571,20.8508951 -1.26483309,15.3145097 2.06188069,8.55210049 C5.38859448,1.78969126 8.99369688,6.59342691 8.99369688,6.59342691 L10.2220191,26.5111876 Z" id="Path-2" fill="#343434"></path>
                            <path d="M25.5216191,9.23614804 C25.5216191,2.2561564 20.7038405,-1.59616283 14.7608095,0.631752213 C8.81777853,2.85966725 4,10.3241505 4,17.3041421 C4,24.2841337 8.81777853,28.136453 14.7608095,25.9085379 C20.7038405,23.6806229 25.5216191,16.2161397 25.5216191,9.23614804 Z" id="Oval-2" fill="#2B2B2B"></path>
                            <path d="M19.728401,11.8710473 C19.728401,8.93210345 17.6998627,7.3100743 15.1975338,8.24814379 C12.695205,9.18621328 10.6666667,12.3291536 10.6666667,15.2680974 C10.6666667,18.2070413 12.695205,19.8290704 15.1975338,18.8910009 C17.6998627,17.9529314 19.728401,14.8099911 19.728401,11.8710473 Z" id="Oval" fill="#616161"></path>
                        </g>
                        <polygon id="voorkant-vrachtwagen" fill="#D08F25" points="1.04075238 34.663354 43.9785936 59.7060597 44.0534188 122.52501 0.0845652944 99.3676211"></polygon>
                        <polygon id="plint" fill="#D8D8D8" points="26.8350933 118.197481 26.8350933 113.375629 43.791794 122.367137 43.7917937 127.08933"></polygon>
                        <polygon id="Binnekant-wagen" fill="#200909" points="45.5620249 60.3587031 45.8701224 106.034595 100.533692 75.3934559 103.524379 59.0180807 92.2774239 34.6709478"></polygon>
                        <polygon id="toonbank" fill="#A3701D" points="44.7342186 88.1118892 102.327933 55.3478807 101.396048 72.2516802 46.6882451 102.926599"></polygon>
                        <g id="Rectangle-13">
                            <use fill="#D8D8D8" fill-rule="evenodd" xlink:href="#path-1"></use>
                            <path stroke="#979797" stroke-width="1" d="M47.1666667,94.6821881 L68.7805007,75.7633551 L67.951182,75.3871248 L67.951182,75.8254724 L46.337348,94.7443054 L47.1666667,95.1205357 L47.1666667,94.6821881 Z"></path>
                        </g>
                        <path d="M103.009297,25.6071328 L103.009297,90.5365255 L43.6942399,124.633329 L43.6942399,59.8670289 L103.009297,25.6071328 Z M47.080883,100.627686 L100.746284,70.2522281 L101.549428,31.6502364 L46.8160701,63.0524109 L47.080883,100.627686 Z" id="Combined-Shape" fill="#BD8222"></path>
                        <polygon id="dak-groot" fill="#EAA028" points="60.421876 0.456378965 0.928145307 34.6894238 43.7794722 59.7645757 103.223609 25.6666481"></polygon>
                        <polygon id="luivel" fill="#D8D8D8" points="47.2311575 63.4610862 75.3993768 82.6765985 128.771101 51.8330385 100.786602 33.2762523"></polygon>
                        <polygon id="luivel" fill="#D67200" points="47.2311575 63.4610862 75.3993768 82.6765985 88.4583176 74.9750629 60.473818 56.4182768"></polygon>
                        <polygon id="luivel" fill="#D67200" points="74.6666667 48.2838809 102.834886 67.4993932 115.893827 59.7978576 87.9093272 41.2410714"></polygon>
                        <path d="M45.7943464,62.7074703 C45.7943464,62.7074703 46.5920605,64.6308767 47.7842465,64.6308768 C48.9764324,64.6308768 103.653535,32.1161386 103.653535,32.1161386 C103.653535,32.1161386 102.526929,30.3502482 101.625563,30.3502482 C100.724197,30.3502482 45.7943464,62.7074703 45.7943464,62.7074703 Z" id="luivelding" fill="#A3701D"></path>
                        <polygon id="plint" fill="#CAC8C8" points="102.885753 88.0651777 102.992023 87.9511498 102.992023 87.6328792 103.429769 87.6328792 103.759214 87.6328792 103.997201 92.4488786 43.6940633 127.162534 43.6479525 122.328558"></polygon>
                    </g>
                    <g id="auto" transform="translate(0.000000, 55.875000)">
                        <g id="voorwiel" transform="translate(11.333333, 66.517857)">
                            <path d="M10.2220191,26.5111876 C10.2220191,26.5111876 1.96404845,22.5997176 1.69211708,21.7253063 C1.42018571,20.8508951 -1.26483309,15.3145097 2.06188069,8.55210049 C5.38859448,1.78969126 8.99369688,6.59342691 8.99369688,6.59342691 L10.2220191,26.5111876 Z" id="Path-2" fill="#343434"></path>
                            <path d="M25.5216191,9.23614804 C25.5216191,2.2561564 20.7038405,-1.59616283 14.7608095,0.631752213 C8.81777853,2.85966725 4,10.3241505 4,17.3041421 C4,24.2841337 8.81777853,28.136453 14.7608095,25.9085379 C20.7038405,23.6806229 25.5216191,16.2161397 25.5216191,9.23614804 Z" id="Oval-2" fill="#2B2B2B"></path>
                            <path d="M19.728401,11.8710473 C19.728401,8.93210345 17.6998627,7.3100743 15.1975338,8.24814379 C12.695205,9.18621328 10.6666667,12.3291536 10.6666667,15.2680974 C10.6666667,18.2070413 12.695205,19.8290704 15.1975338,18.8910009 C17.6998627,17.9529314 19.728401,14.8099911 19.728401,11.8710473 Z" id="Oval" fill="#616161"></path>
                        </g>
                        <polygon id="zijkant-auto" fill="#BD8222" points="54.2520451 14.0608701 33.7737201 25.6822278 26.6771028 59.0119443 26.3634862 79.8449918 54.3229736 62.8963959"></polygon>
                        <polygon id="plint" fill="#CAC7C7" points="26.493662 84.0922889 26.4509063 78.6891115 54.336913 62.9119471 55.1392356 63.9993039 55.0265035 67.2805785"></polygon>
                        <polygon id="plint" fill="#D8D8D8" points="2.21390133 63.8336385 2.03336046 65.0840059 26.5777353 78.9042811 26.5089391 84.1563245 0.253037742 68.9400953 0.437596835 64.4574217"></polygon>
                        <polygon id="voorkant-auto" fill="#D08F25" points="9.18252865 11.6649819 2.03916076 45.8526381 2.14941744 63.7626736 2.00675557 65.0626909 26.3718998 78.873157 26.8872213 58.6950901 33.9863285 25.4328633"></polygon>
                        <polygon id="zijruit" fill="#749CC8" points="46.4223805 20.8869822 35.2356077 26.6643416 29.1897683 56.7112305 46.6961897 46.9804967"></polygon>
                        <polygon id="voorruit" fill="#749CC8" points="10.4416336 15.0085617 31.345737 27.2882546 25.441477 57.5290475 4.06566501 44.9172968"></polygon>
                        <polygon id="dak-klein" fill="#EAA028" points="29.8676458 0.00633503583 54.3398811 14.1189371 33.9900174 25.5512422 9.15288976 11.6113567"></polygon>
                    </g>
                </g>
            </g>
        </g>
    </g>
</svg>