<?xml version="1.0" encoding="UTF-8"?>
<svg width="255px" height="266px" viewBox="0 0 255 266" version="1.1" xmlns="http://www.w3.org/2000/svg" xmlns:xlink="http://www.w3.org/1999/xlink">
    <!-- Generator: Sketch 43.2 (39069) - http://www.bohemiancoding.com/sketch -->
    <title>Bar Copy</title>
    <desc>Created with Sketch.</desc>
    <defs></defs>
    <g id="Page-1" stroke="none" stroke-width="1" fill="none" fill-rule="evenodd">
        <g id="Desktop-HD" transform="translate(-1059.000000, -501.000000)">
            <g id="zone-3" transform="translate(526.000000, 296.000000)">
                <g id="Bar-Copy" transform="translate(660.500000, 338.000000) scale(-1, 1) translate(-660.500000, -338.000000) translate(533.000000, 205.000000)">
                    <polygon id="Path-11" fill="#18536B" points="178.453982 118.004611 177.793199 0.589764523 0.726079831 104.201588 0.715591212 221.969552"></polygon>
                    <g id="Group-3" transform="translate(51.000000, 87.000000)">
                        <polygon id="Path-10" fill="#AF8A52" points="101.207006 16.6894486 101.207006 45.8357829 151.730695 73.2495149 151.730695 45.4085274"></polygon>
                        <polygon id="Path-7" fill="#DAB173" points="0.572745646 134.107477 25.7326076 148.786925 203.183228 45.3037939 126.690854 0.903604472 101.124653 16.660985 151.836399 45.3037929"></polygon>
                        <polygon id="Path-8" fill="#AF8A52" points="0.643126667 163.567791 25.7953045 178.659052 25.7953053 148.774745 0.643126667 134.039824"></polygon>
                        <polygon id="Path-9" fill="#997237" points="203.019052 45.298152 203.00435 74.3145696 25.7978341 178.660136 25.7978341 148.727679"></polygon>
                    </g>
                    <polygon id="Path-12" fill="#104155" points="203.337694 15.7444693 177.840805 0.565632025 178.283545 88.2779733 203.337694 102.568455"></polygon>
                    <polygon id="Path-12-Copy" fill="#104155" points="25.3376939 117.744469 0 103 0.926185972 222.646954 25.3376942 236.703613"></polygon>
                    <g id="Group-4" transform="translate(90.000000, 90.000000)">
                        <path d="M6.5,54.5757896 C10.0898509,54.5757896 13,52.5245943 13,49.9943168 C13,47.4640393 10.0898509,45.412844 6.5,45.412844 C2.91014913,45.412844 0,47.4640393 0,49.9943168 C0,52.5245943 2.91014913,54.5757896 6.5,54.5757896 Z" id="Oval-3" fill="#29771F"></path>
                        <path d="M6.5,27.733886 C10.0898509,27.733886 13,25.1597747 13,21.9844475 C13,18.8091203 10.0898509,13.1192661 6.5,13.1192661 C2.91014913,13.1192661 0,18.8091203 0,21.9844475 C0,25.1597747 2.91014913,27.733886 6.5,27.733886 Z" id="Oval-3-Copy" fill="#29771F"></path>
                        <rect id="Rectangle-14" fill="#29771F" x="0" y="21.1926606" width="13" height="29.189457"></rect>
                        <rect id="Rectangle-14-Copy" fill="#29771F" x="3.5" y="2.01834862" width="6" height="29.189457"></rect>
                        <path d="M3.29738075,3.3758469 C3.37330679,3.57280137 3.26023826,3.9850256 3.42085984,4.15665259 C3.52518649,4.26812745 4.02601194,4.09507151 4.16111572,4.19289235 C4.37899437,4.35064568 4.25422301,4.76741192 4.53889053,4.88171111 C4.84690659,5.00538516 5.18842665,4.67838247 5.55469526,4.73922968 C5.85530915,4.78916985 6.17285674,5.23822609 6.5,5.23822609 C6.74844241,5.23822609 6.87879793,4.76850835 7.11273494,4.73922968 C7.38010913,4.70576614 7.74845901,5.10848809 7.98985975,5.04098851 C8.32570416,4.94708094 8.35028326,4.45300856 8.61851385,4.30361702 C8.86987073,4.16362332 9.36961346,4.37132258 9.54443329,4.19289241 C9.67176402,4.06293209 9.62511972,3.64968394 9.70423503,3.50389568 C9.81608892,3.29777902 10.0280202,3.35217763 10.0280202,3.1237002 C10.0280202,2.81480801 9.90284873,2.02885268 9.70423503,1.76432689 C9.15195527,1.02876718 7.93309479,1.00917431 6.5,1.00917431 C5.17556107,1.00917431 3.90069843,1.11738261 3.29738075,1.76432689 C3.01311696,2.06914613 2.97197984,2.7496849 2.97197984,3.1237002 C2.97197984,3.28807064 3.23817309,3.22226043 3.29738075,3.3758469 Z" id="Oval-3-Copy-3" fill="#827E7E"></path>
                        <path d="M6.5,4.22905178 C8.29858929,4.22905178 9.756634,3.28234629 9.756634,2.11452589 C9.756634,0.946705488 8.29858929,2.88657986e-14 6.5,2.88657986e-14 C4.70141071,2.88657986e-14 3.243366,0.946705488 3.243366,2.11452589 C3.243366,3.28234629 4.70141071,4.22905178 6.5,4.22905178 Z" id="Oval-3-Copy-2" fill="#EEEAEA"></path>
                    </g>
                    <path d="M111.883202,62.6487104 C109.817958,63.8556746 108.318852,65.0256224 107.385839,66.158589 C106.452827,67.2915557 105.986328,68.4988444 105.986328,69.7804914 C105.986328,70.6504176 106.190525,71.2449413 106.598925,71.5640804 C107.007326,71.8832195 107.550191,71.9013077 108.227538,71.6183457 L108.227538,71.7179551 C107.304487,72.4632625 106.638771,73.2374707 106.230371,74.0406028 C105.82197,74.8437349 105.617773,75.7134544 105.617773,76.6497871 C105.617773,77.9779188 106.097553,78.7334541 107.057128,78.9164157 C108.016703,79.0993774 109.319913,78.7096308 110.966796,77.7471642 L116.415429,74.5628904 L116.415429,60 L111.883202,62.6487104 Z M111.53457,68.6198401 C110.697847,69.1088352 110.091896,69.3334724 109.716699,69.2937583 C109.341501,69.2540443 109.153906,68.9353624 109.153906,68.3377032 C109.153906,67.7798879 109.358103,67.260458 109.766503,66.7793978 C110.174904,66.2983375 110.820698,65.7997341 111.703906,65.2835726 L113.327538,64.334694 L113.327538,67.5719986 L111.53457,68.6198401 Z M113.327538,73.8175063 L111.315429,74.9934173 C110.465425,75.4901742 109.837892,75.6942214 109.432812,75.6055649 C109.027732,75.5169084 108.825195,75.1372326 108.825195,74.4665261 C108.825195,73.2579263 109.688467,72.1491243 111.415038,71.1400867 L113.327538,70.0223892 L113.327538,73.8175063 Z M94.8499997,83.6996886 L100.159179,80.5969135 L101.215039,83.4462575 L104.541992,81.5019295 L99.402148,69.8830857 L95.6269528,72.0893741 L90.4671872,89.727485 L93.7941403,87.783157 L94.8499997,83.6996886 Z M97.2356442,74.3865321 C97.3584963,73.9030144 97.4464837,73.5262057 97.499609,73.2560947 C97.7187507,73.9780288 98.3462835,75.7130247 99.3822261,78.4611345 L95.587109,80.6790656 C96.5632858,76.96754 97.112792,74.8700498 97.2356442,74.3865321 Z M84.5503905,85.0871199 C83.5742137,85.6576142 82.8537132,85.9159933 82.3888671,85.862265 C81.924021,85.8085368 81.6916015,85.4330437 81.6916015,84.7357746 C81.6916015,84.0451462 81.9290014,83.4150042 82.4038085,82.84533 C82.8786155,82.2756557 83.6140574,81.6997586 84.6101561,81.1176216 L85.5464842,80.5704155 L85.5464842,84.5049857 L84.5503905,85.0871199 Z M85.5464842,92.6032277 L88.6343748,90.7986119 L88.6343748,76.2357215 L84.3910155,78.715613 C82.4120994,79.8721253 80.9478562,81.0881042 79.9982421,82.3635863 C79.048628,83.6390684 78.5738281,85.0105816 78.5738281,86.478167 C78.5738281,87.3348119 78.8095679,87.9590456 79.2810546,88.3508869 C79.7525414,88.7427281 80.4199175,88.8756461 81.283203,88.7496448 C79.0917859,93.3041908 77.6640658,96.2535926 77,97.5979388 L80.4265624,95.5953973 L83.9029296,87.9756633 L85.5464842,87.0151419 L85.5464842,92.6032277 Z" id="BAR" fill="#FDFDFD"></path>
                </g>
            </g>
        </g>
    </g>
</svg>