<?xml version="1.0" encoding="UTF-8"?>
<svg width="1440px" height="890px" viewBox="0 0 1440 890" version="1.1" xmlns="http://www.w3.org/2000/svg" xmlns:xlink="http://www.w3.org/1999/xlink">
    <g id="Page-1" stroke="none" stroke-width="1" fill="none" fill-rule="evenodd">
        <g id="Desktop-HD">
            <g id="zone-4" transform="translate(-1.000000, -1.000000)">
                <g id="zones">
                    <polygon id="zone4" fill-opacity="0.55" fill="#1ABA98" points="1.1800591 490.435555 149.498522 405.716701 225.782891 448.954675 452.413332 315.720315 553.156369 374.437809 654.436116 315.720315 958.078904 490.90686 781.956268 594.170402 908.51824 667.89003 526.613247 889.719204 1.1800591 889.719204"></polygon>
                    <polygon id="zone3" fill-opacity="0.55" fill="#D10AC7" points="1441 297.146346 1035.8189 534.554017 958.450513 491.288627 782.631625 594.304005 908.726627 667.439938 527.543312 889.922643 1441.49612 890.097758"></polygon>
                    <polygon id="zone2" fill-opacity="0.55" fill="#253798" points="716.634593 0.66395334 933.041321 124.517937 907.004072 138.459448 933.041321 153.491864 651.927067 316.262605 1035.27823 535.366057 1211.53545 431.478987 1288.10477 387.036824 1441 297.770907 1441 0.66395334"></polygon>
                    <polygon id="zone1" fill-opacity="0.55" fill="#FFB914" points="932.550502 153.57919 907.217646 138.36993 933.130837 124.582603 717.382601 1 1.26800687 1.05239025 0.39414301 490.314281 149.26351 405.845397 225.80574 448.771176 452.968374 316.100553 553.181384 374.603546"></polygon>
                </g>
            </g>
        </g>
    </g>
</svg>
