<?xml version="1.0" encoding="UTF-8"?>
<svg width="301px" height="276px" viewBox="0 0 301 276" version="1.1" xmlns="http://www.w3.org/2000/svg" xmlns:xlink="http://www.w3.org/1999/xlink">
    <!-- Generator: Sketch 43.2 (39069) - http://www.bohemiancoding.com/sketch -->
    <title>Podium</title>
    <desc>Created with Sketch.</desc>
    <defs></defs>
    <g id="Page-1" stroke="none" stroke-width="1" fill="none" fill-rule="evenodd">
        <g id="Desktop-HD" transform="translate(-504.000000, 0.000000)">
            <g id="Group-2" transform="translate(-1.000000, -19.000000)">
                <g id="Podium" transform="translate(505.000000, 0.000000)">
                    <g transform="translate(25.582662, 92.940804)">
                        <polygon id="Rectangle" fill="#97723A" points="-2.84217094e-13 89.1178894 -2.84217094e-13 57.981419 171.403834 154.073477 171.403834 183.378017"></polygon>
                        <polygon id="Rectangle-2" fill="#88632C" points="274.530921 125.23435 171.403834 183.434299 171.403834 154.075388 274.530921 95.2757202"></polygon>
                        <polygon id="Rectangle-3" fill="#B79055" points="274.745098 95.2732823 171.387556 154.740534 0 58.6538517 102.550004 0"></polygon>
                    </g>
                    <g transform="translate(0.000000, 173.091589)">
                        <polygon id="Rectangle" fill="#97723A" points="0.439176415 66.6194324 0.439176415 36.4115445 98.4577511 91.2243699 98.4577511 121.183705"></polygon>
                        <polygon id="Rectangle-2" fill="#88642C" points="163.729035 84.5293775 98.3231569 121.269068 98.3231569 91.9101574 163.729035 54.5707472"></polygon>
                        <polygon id="Rectangle-3" fill="#B79055" points="98.3166358 92.3928201 0.107414181 36.475144 65.0287664 0 164.045527 55.1042762"></polygon>
                    </g>
                    <g id="Muren" transform="translate(108.385755, 0.000000)">
                        <polygon id="Rectangle-4-Copy" fill="#131313" points="0 16.7120097 28.9936834 0 28.9936834 107.446931 0 123.2955"></polygon>
                        <polygon id="Rectangle-5" fill="#2A2A2A" points="172.256589 77.570028 172.256589 185.006187 28.140928 107.436159 28.140928 -2.84217094e-14"></polygon>
                        <polygon id="Rectangle-4" fill="#000000" points="143.262906 94.304791 172.256589 77.5927812 172.256589 185.529363 143.262906 200.888282"></polygon>
                    </g>
                    <g id="Lichtding" transform="translate(90.395794, 12.790019)">
                        <polygon id="Rectangle-10-Copy-6" fill="#B4B4B4" points="4.34587453 80.150785 21.8841836 88.3981022 21.8841836 89.2507701 4.34587453 81.0034529"></polygon>
                        <polygon id="Rectangle-10-Copy-7" fill="#B4B4B4" points="4.34587453 98.0568115 21.8841836 106.304129 21.8841836 107.156797 4.34587453 98.9094794"></polygon>
                        <polygon id="Rectangle-10-Copy-8" fill="#B4B4B4" points="4.34587453 63.9500944 21.8841836 72.1974116 21.8841836 73.0500795 4.34587453 64.8027624"></polygon>
                        <polygon id="Rectangle-10-Copy-9" fill="#B4B4B4" points="4.34587453 46.044068 21.8841836 54.2913852 21.8841836 55.1440531 4.34587453 46.8967359"></polygon>
                        <polygon id="Rectangle-10-Copy-10" fill="#B4B4B4" points="4.34587453 28.1380415 21.8841836 36.3853587 21.8841836 37.2380267 4.34587453 28.9907095"></polygon>
                        <polygon id="Rectangle-10-Copy-11" fill="#B4B4B4" points="4.34587453 9.37934718 21.8841836 17.6266644 21.8841836 18.4793323 4.34587453 10.2320151"></polygon>
                        <polygon id="Rectangle-7-Copy-6" fill="#B4B4B4" points="12.0206731 111.693237 21.9903917 96.3514756 21.9903917 97.2041435 17.1927433 104.586937 12.0206731 112.545904"></polygon>
                        <polygon id="Rectangle-7-Copy-7" fill="#B4B4B4" points="12.0206731 93.7872101 21.9903917 78.4454492 21.9903917 79.2981171 17.1927433 86.6809107 12.0206731 94.6398781"></polygon>
                        <polygon id="Rectangle-7-Copy-8" fill="#B4B4B4" points="12.0206731 76.7338516 21.9903917 61.3920907 21.9903917 62.2447586 17.1927433 69.6275522 12.0206731 77.5865195"></polygon>
                        <polygon id="Rectangle-7-Copy-9" fill="#B4B4B4" points="12.0206731 59.6804931 21.9903917 44.3387321 21.9903917 45.1914001 17.1927433 52.5741937 12.0206731 60.533161"></polygon>
                        <polygon id="Rectangle-7-Copy-10" fill="#B4B4B4" points="12.0206731 41.7744667 21.9903917 26.4327057 21.9903917 27.2853736 17.1927433 34.6681672 12.0206731 42.6271346"></polygon>
                        <polygon id="Rectangle-7-Copy-11" fill="#B4B4B4" points="12.0206731 23.8684402 21.9903917 8.52667926 21.9903917 9.37934718 17.1927433 16.7621408 12.0206731 24.7211081"></polygon>
                        <polygon id="Rectangle-9-Copy-6" fill="#B4B4B4" points="4.34587453 109.994162 11.1754907 114.910396 11.1754907 115.763064 4.34587453 110.84683"></polygon>
                        <polygon id="Rectangle-9-Copy-7" fill="#B4B4B4" points="4.34587453 92.088136 11.1754907 97.0043698 11.1754907 97.8570378 4.34587453 92.9408039"></polygon>
                        <polygon id="Rectangle-9-Copy-8" fill="#B4B4B4" points="4.34587453 74.1821095 11.1754907 79.0983434 11.1754907 79.9510113 4.34587453 75.0347775"></polygon>
                        <polygon id="Rectangle-9-Copy-9" fill="#B4B4B4" points="4.34587453 56.2760831 11.1754907 61.1923169 11.1754907 62.0449849 4.34587453 57.128751"></polygon>
                        <polygon id="Rectangle-9-Copy-10" fill="#B4B4B4" points="4.34587453 39.2227246 11.1754907 44.1389584 11.1754907 44.9916264 4.34587453 40.0753925"></polygon>
                        <polygon id="Rectangle-9-Copy-11" fill="#B4B4B4" points="4.34587453 21.3166981 11.1754907 26.232932 11.1754907 27.0855999 4.34587453 22.1693661"></polygon>
                        <polygon id="Rectangle-8-Copy-6" fill="#B4B4B4" points="12.8734285 114.826875 21.397218 108.288827 21.397218 109.141494 12.8734285 115.679543"></polygon>
                        <polygon id="Rectangle-8-Copy-7" fill="#B4B4B4" points="12.8734285 96.9208482 21.397218 90.3828001 21.397218 91.2354681 12.8734285 97.7735161"></polygon>
                        <polygon id="Rectangle-8-Copy-8" fill="#B4B4B4" points="12.8734285 79.8674897 21.397218 73.3294416 21.397218 74.1821095 12.8734285 80.7201576"></polygon>
                        <polygon id="Rectangle-8-Copy-9" fill="#B4B4B4" points="12.8734285 62.8141311 21.397218 56.2760831 21.397218 57.128751 12.8734285 63.6667991"></polygon>
                        <polygon id="Rectangle-8-Copy-10" fill="#B4B4B4" points="12.8734285 44.9081047 21.397218 38.3700567 21.397218 39.2227246 12.8734285 45.7607726"></polygon>
                        <polygon id="Rectangle-8-Copy-11" fill="#B4B4B4" points="12.8734285 27.0020783 21.397218 20.4640302 21.397218 21.3166981 12.8734285 27.8547462"></polygon>
                        <polygon id="Rectangle-11-Copy-6" fill="#B4B4B4" points="4.34587453 107.28357 12.1658587 101.467483 12.1658587 102.320151 4.34587453 108.136238"></polygon>
                        <polygon id="Rectangle-11-Copy-7" fill="#B4B4B4" points="4.34587453 90.2302118 12.1658587 84.4141246 12.1658587 85.2667926 4.34587453 91.0828797"></polygon>
                        <polygon id="Rectangle-11-Copy-8" fill="#B4B4B4" points="4.34587453 72.3241853 12.1658587 66.5080982 12.1658587 67.3607661 4.34587453 73.1768533"></polygon>
                        <polygon id="Rectangle-11-Copy-9" fill="#B4B4B4" points="4.34587453 54.4181589 12.1658587 48.6020718 12.1658587 49.4547397 4.34587453 55.2708268"></polygon>
                        <polygon id="Rectangle-11-Copy-10" fill="#B4B4B4" points="4.34587453 37.3648004 12.1658587 31.5487133 12.1658587 32.4013812 4.34587453 38.2174683"></polygon>
                        <g id="Group-2" transform="translate(142.492248, 86.119461)" fill="#B4B4B4">
                            <polygon id="Rectangle-10" points="0 71.6241058 17.538309 79.871423 17.538309 80.7240909 0 72.4767737"></polygon>
                            <polygon id="Rectangle-10-Copy" points="0 89.5301322 17.538309 97.7774494 17.538309 98.6301173 0 90.3828001"></polygon>
                            <polygon id="Rectangle-10-Copy-2" points="0 55.4234152 17.538309 63.6707324 17.538309 64.5234003 0 56.2760831"></polygon>
                            <polygon id="Rectangle-10-Copy-3" points="0 37.5173887 17.538309 45.7647059 17.538309 46.6173738 0 38.3700567"></polygon>
                            <polygon id="Rectangle-10-Copy-4" points="0 19.6113623 17.538309 27.8586795 17.538309 28.7113474 0 20.4640302"></polygon>
                            <polygon id="Rectangle-10-Copy-5" points="0 0.852667926 17.538309 9.09998511 17.538309 9.95265304 0 1.70533585"></polygon>
                            <polygon id="Rectangle-7" points="7.67479854 103.166557 17.6445172 87.8247964 17.6445172 88.6774643 12.8468688 96.0602579 7.67479854 104.019225"></polygon>
                            <polygon id="Rectangle-7-Copy" points="7.67479854 85.2605309 17.6445172 69.9187699 17.6445172 70.7714378 12.8468688 78.1542315 7.67479854 86.1131988"></polygon>
                            <polygon id="Rectangle-7-Copy-2" points="7.67479854 68.2071724 17.6445172 52.8654114 17.6445172 53.7180793 12.8468688 61.1008729 7.67479854 69.0598403"></polygon>
                            <polygon id="Rectangle-7-Copy-3" points="7.67479854 51.1538138 17.6445172 35.8120529 17.6445172 36.6647208 12.8468688 44.0475144 7.67479854 52.0064818"></polygon>
                            <polygon id="Rectangle-7-Copy-4" points="7.67479854 33.2477874 17.6445172 17.9060264 17.6445172 18.7586944 12.8468688 26.141488 7.67479854 34.1004553"></polygon>
                            <polygon id="Rectangle-7-Copy-5" points="7.67479854 15.341761 17.6445172 0 17.6445172 0.852667926 12.8468688 8.23546155 7.67479854 16.1944289"></polygon>
                            <polygon id="Rectangle-9" points="0 101.467483 6.82961614 106.383717 6.82961614 107.236385 0 102.320151"></polygon>
                            <polygon id="Rectangle-9-Copy" points="0 83.5614567 6.82961614 88.4776906 6.82961614 89.3303585 0 84.4141246"></polygon>
                            <polygon id="Rectangle-9-Copy-2" points="0 65.6554303 6.82961614 70.5716641 6.82961614 71.4243321 0 66.5080982"></polygon>
                            <polygon id="Rectangle-9-Copy-3" points="0 47.7494038 6.82961614 52.6656377 6.82961614 53.5183056 0 48.6020718"></polygon>
                            <polygon id="Rectangle-9-Copy-4" points="0 30.6960453 6.82961614 35.6122792 6.82961614 36.4649471 0 31.5487133"></polygon>
                            <polygon id="Rectangle-9-Copy-5" points="0 12.7900189 6.82961614 17.7062527 6.82961614 18.5589207 0 13.6426868"></polygon>
                            <polygon id="Rectangle-8" points="8.52755393 106.300195 17.0513435 99.7621473 17.0513435 100.614815 8.52755393 107.152863"></polygon>
                            <polygon id="Rectangle-8-Copy" points="8.52755393 88.3941689 17.0513435 81.8561209 17.0513435 82.7087888 8.52755393 89.2468368"></polygon>
                            <polygon id="Rectangle-8-Copy-2" points="8.52755393 71.3408104 17.0513435 64.8027624 17.0513435 65.6554303 8.52755393 72.1934783"></polygon>
                            <polygon id="Rectangle-8-Copy-3" points="8.52755393 54.2874519 17.0513435 47.7494038 17.0513435 48.6020718 8.52755393 55.1401198"></polygon>
                            <polygon id="Rectangle-8-Copy-4" points="8.52755393 36.3814254 17.0513435 29.8433774 17.0513435 30.6960453 8.52755393 37.2340934"></polygon>
                            <polygon id="Rectangle-8-Copy-5" points="8.52755393 18.475399 17.0513435 11.937351 17.0513435 12.7900189 8.52755393 19.3280669"></polygon>
                            <polygon id="Rectangle-11" points="0 98.756891 7.81998416 92.9408039 7.81998416 93.7934718 0 99.609559"></polygon>
                            <polygon id="Rectangle-11-Copy" points="0 81.7035325 7.81998416 75.8874454 7.81998416 76.7401133 0 82.5562004"></polygon>
                            <polygon id="Rectangle-11-Copy-2" points="0 63.7975061 7.81998416 57.981419 7.81998416 58.8340869 0 64.650174"></polygon>
                            <polygon id="Rectangle-11-Copy-3" points="0 45.8914796 7.81998416 40.0753925 7.81998416 40.9280604 0 46.7441476"></polygon>
                            <polygon id="Rectangle-11-Copy-4" points="0 28.8381211 7.81998416 23.022034 7.81998416 23.8747019 0 29.690789"></polygon>
                            <polygon id="Rectangle-11-Copy-5" points="0 10.9320947 7.81998416 5.11600755 7.81998416 5.96867548 0 11.7847626"></polygon>
                        </g>
                        <g id="Group-2-Copy-2" transform="translate(127.302741, 74.064121) rotate(-59.000000) translate(-127.302741, -74.064121) translate(117.302741, 46.064121)" fill="#B4B4B4">
                            <polygon id="Rectangle-10-Copy-3" points="-4.68958206e-13 37.5173887 19.3534947 45.7647059 19.3534947 46.6173738 -4.68958206e-13 38.3700567"></polygon>
                            <polygon id="Rectangle-10-Copy-4" points="-4.12114787e-13 19.6113623 19.3534947 27.8586795 19.3534947 28.7113474 -4.12114787e-13 20.4640302"></polygon>
                            <polygon id="Rectangle-10-Copy-5" points="9.06373556 2.5748457 19.3534947 9.09998511 19.3534947 9.95265304 9.06373556 3.42751362"></polygon>
                            <polygon id="Rectangle-7-Copy-3" points="9.18093606 49.8534583 19.4706952 35.8120529 19.4706952 36.5924493 14.5190362 43.3494832 9.18093606 50.6338547"></polygon>
                            <polygon id="Rectangle-7-Copy-4" points="8.97646364 33.0297385 19.4706952 17.9060264 19.4706952 18.7586944 14.1764982 26.141488 8.97646364 33.8824064"></polygon>
                            <polygon id="Rectangle-7-Copy-5" points="8.46912736 15.341761 19.4706952 7.95807864e-13 19.4706952 0.852667926 14.1764982 8.23546155 8.46912736 16.1944289"></polygon>
                            <polygon id="Rectangle-9-Copy-3" points="-1.27897692e-13 47.7494038 7.53646999 52.6656377 7.53646999 53.5183056 -1.27897692e-13 48.6020718"></polygon>
                            <polygon id="Rectangle-9-Copy-4" points="-5.25801624e-13 30.6960453 9.23594221 36.2397684 9.23594221 37.0924363 -5.25801624e-13 31.5487133"></polygon>
                            <polygon id="Rectangle-9-Copy-5" points="-7.531753e-13 12.7900189 8.59699639 18.1350282 8.59699639 18.9876962 -7.531753e-13 13.6426868"></polygon>
                            <polygon id="Rectangle-8-Copy-3" points="9.41014151 54.2874519 18.816129 47.7494038 18.816129 48.6020718 9.41014151 55.1401198"></polygon>
                            <polygon id="Rectangle-8-Copy-4" points="9.41014151 36.3814254 18.816129 29.8433774 18.816129 30.6960453 9.41014151 37.2340934"></polygon>
                            <polygon id="Rectangle-8-Copy-5" points="9.41014151 18.475399 18.816129 11.937351 18.816129 12.7900189 9.41014151 19.3280669"></polygon>
                            <polygon id="Rectangle-11-Copy-3" points="-5.82645043e-13 45.8914796 8.62933944 40.0753925 8.62933944 40.9280604 -5.82645043e-13 46.7441476"></polygon>
                            <polygon id="Rectangle-11-Copy-4" points="-1.84741111e-13 28.8381211 8.62933944 23.022034 8.62933944 23.8747019 -1.84741111e-13 29.690789"></polygon>
                            <polygon id="Rectangle-11-Copy-5" points="2.7000624e-13 10.9320947 8.62933944 5.11600755 8.62933944 5.96867548 2.7000624e-13 11.7847626"></polygon>
                        </g>
                        <g id="Group-2-Copy" transform="translate(62.352607, 36.723527) rotate(-59.000000) translate(-62.352607, -36.723527) translate(52.852607, -17.276473)" fill="#B4B4B4">
                            <polygon id="Rectangle-10" points="4.12114787e-13 71.6241058 17.538309 79.871423 17.538309 80.7240909 4.12114787e-13 72.4767737"></polygon>
                            <polygon id="Rectangle-10-Copy" points="-9.9475983e-14 89.5301322 17.9471953 97.8121285 17.9471953 98.6647965 -9.9475983e-14 90.3828001"></polygon>
                            <polygon id="Rectangle-10-Copy-2" points="1.15107923e-12 55.4234152 17.538309 63.6707324 17.538309 64.5234003 1.15107923e-12 56.2760831"></polygon>
                            <polygon id="Rectangle-10-Copy-3" points="1.84741111e-13 37.5173887 17.538309 45.7647059 17.538309 46.6173738 1.84741111e-13 38.3700567"></polygon>
                            <polygon id="Rectangle-10-Copy-4" points="2.4158453e-13 19.6113623 17.538309 27.8586795 17.538309 28.7113474 2.4158453e-13 20.4640302"></polygon>
                            <polygon id="Rectangle-10-Copy-5" points="2.13162821e-13 0.852667926 17.538309 9.09998511 17.538309 9.95265304 2.13162821e-13 1.70533585"></polygon>
                            <polygon id="Rectangle-7" points="8.08106198 102.998219 17.6445172 87.8247964 17.6445172 88.6774643 12.8468688 96.0602579 8.08106198 103.850887"></polygon>
                            <polygon id="Rectangle-7-Copy" points="7.67479854 85.2605309 17.6445172 69.9187699 17.6445172 70.7714378 12.8468688 78.1542315 7.67479854 86.1131988"></polygon>
                            <polygon id="Rectangle-7-Copy-2" points="7.67479854 68.2071724 17.6445172 52.8654114 17.6445172 53.7180793 12.8468688 61.1008729 7.67479854 69.0598403"></polygon>
                            <polygon id="Rectangle-7-Copy-3" points="7.67479854 51.1538138 17.6445172 35.8120529 17.6445172 36.6647208 12.8468688 44.0475144 7.67479854 52.0064818"></polygon>
                            <polygon id="Rectangle-7-Copy-4" points="7.67479854 33.2477874 17.6445172 17.9060264 17.6445172 18.7586944 12.8468688 26.141488 7.67479854 34.1004553"></polygon>
                            <polygon id="Rectangle-7-Copy-5" points="7.67479854 15.341761 17.6445172 2.27373675e-13 17.6445172 0.852667926 12.8468688 8.23546155 7.67479854 16.1944289"></polygon>
                            <polygon id="Rectangle-9" points="1.27897692e-13 101.467483 8.44077355 106.912208 8.44077355 107.764876 1.27897692e-13 102.320151"></polygon>
                            <polygon id="Rectangle-9-Copy" points="1.84741111e-13 83.5614567 7.79676666 88.893947 7.79676666 89.7466149 1.84741111e-13 84.4141246"></polygon>
                            <polygon id="Rectangle-9-Copy-2" points="3.55271368e-13 65.6554303 7.5693329 70.7694496 7.5693329 71.6221176 3.55271368e-13 66.5080982"></polygon>
                            <polygon id="Rectangle-9-Copy-3" points="4.12114787e-13 47.7494038 6.82961614 52.6656377 6.82961614 53.5183056 4.12114787e-13 48.6020718"></polygon>
                            <polygon id="Rectangle-9-Copy-4" points="9.9475983e-14 30.6960453 6.82961614 35.6122792 6.82961614 36.4649471 9.9475983e-14 31.5487133"></polygon>
                            <polygon id="Rectangle-9-Copy-5" points="1.27897692e-13 12.7900189 6.82961614 17.7062527 6.82961614 18.5589207 1.27897692e-13 13.6426868"></polygon>
                            <polygon id="Rectangle-8" points="8.52755393 106.300195 18.2511064 99.0786244 18.2511064 99.9312924 8.52755393 107.152863"></polygon>
                            <polygon id="Rectangle-8-Copy" points="8.52755393 88.3941689 17.8041616 81.5006338 17.8041616 82.3533017 8.52755393 89.2468368"></polygon>
                            <polygon id="Rectangle-8-Copy-2" points="8.52755393 71.3408104 17.0513435 64.8027624 17.0513435 65.6554303 8.52755393 72.1934783"></polygon>
                            <polygon id="Rectangle-8-Copy-3" points="8.52755393 54.2874519 17.0513435 47.7494038 17.0513435 48.6020718 8.52755393 55.1401198"></polygon>
                            <polygon id="Rectangle-8-Copy-4" points="8.52755393 36.3814254 17.0513435 29.8433774 17.0513435 30.6960453 8.52755393 37.2340934"></polygon>
                            <polygon id="Rectangle-8-Copy-5" points="8.52755393 18.475399 17.0513435 11.937351 17.0513435 12.7900189 8.52755393 19.3280669"></polygon>
                            <polygon id="Rectangle-11" points="9.80548975e-13 98.756891 7.81998416 92.9408039 7.81998416 93.7934718 9.80548975e-13 99.609559"></polygon>
                            <polygon id="Rectangle-11-Copy" points="1.84741111e-13 81.7035325 7.81998416 75.8874454 7.81998416 76.7401133 1.84741111e-13 82.5562004"></polygon>
                            <polygon id="Rectangle-11-Copy-2" points="2.4158453e-13 63.7975061 7.81998416 57.981419 7.81998416 58.8340869 2.4158453e-13 64.650174"></polygon>
                            <polygon id="Rectangle-11-Copy-3" points="1.84741111e-13 45.8914796 7.81998416 40.0753925 7.81998416 40.9280604 1.84741111e-13 46.7441476"></polygon>
                            <polygon id="Rectangle-11-Copy-4" points="1.56319402e-13 28.8381211 7.81998416 23.022034 7.81998416 23.8747019 1.56319402e-13 29.690789"></polygon>
                            <polygon id="Rectangle-11-Copy-5" points="8.66862138e-13 10.9320947 7.81998416 5.11600755 7.81998416 5.96867548 8.66862138e-13 11.7847626"></polygon>
                        </g>
                        <polygon id="Rectangle-11-Copy-11" fill="#B4B4B4" points="4.34587453 19.4587739 12.1658587 13.6426868 12.1658587 14.4953547 4.34587453 20.3114419"></polygon>
                        <g id="Group" fill="#9C9C9C">
                            <rect id="Rectangle-6-Copy-3" x="10.3151623" y="10.2320151" width="2.55826618" height="107.436159"></rect>
                            <rect id="Rectangle-6-Copy-4" x="21.4009824" y="5.11600755" width="2.55826618" height="107.436159"></rect>
                            <rect id="Rectangle-6-Copy-5" x="1.78760835" y="5.11600755" width="2.55826618" height="107.436159"></rect>
                            <polygon id="Rectangle-6-Copy-6" transform="translate(76.341966, 46.365622) rotate(-60.000000) translate(-76.341966, -46.365622) " points="74.3872593 -39.5696463 76.9455255 -39.5696463 78.2966727 132.30089 75.7384065 132.30089"></polygon>
                            <polygon id="Rectangle-6-Copy-7" transform="translate(90.414590, 42.938525) rotate(-60.000000) translate(-90.414590, -42.938525) " points="88.4598836 -39.5532211 91.0181498 -39.5532211 92.369297 125.430271 89.8110308 125.430271"></polygon>
                            <rect id="Rectangle-6" x="148.461536" y="87.8247964" width="2.55826618" height="107.436159"></rect>
                            <rect id="Rectangle-6-Copy-2" x="159.547356" y="82.7087888" width="2.55826618" height="107.436159"></rect>
                            <rect id="Rectangle-6-Copy" x="139.933982" y="82.7087888" width="2.55826618" height="107.436159"></rect>
                            <polygon id="Rectangle-6-Copy-7" transform="translate(76.342503, 56.340094) rotate(-60.000000) translate(-76.342503, -56.340094) " points="75.0633703 -18.9135828 77.6216365 -18.9135828 77.6216365 131.593771 75.0633703 131.593771"></polygon>
                        </g>
                    </g>
                </g>
            </g>
        </g>
    </g>
</svg>