<svg width="255px" height="266px" viewBox="0 0 255 266" version="1.1" xmlns="http://www.w3.org/2000/svg" xmlns:xlink="http://www.w3.org/1999/xlink">
    <g id="Bar" transform="translate(84.000000, 113.000000)">
        <polygon id="Path-11" fill="#4C4C4C" points="178.453982 118.004611 177.793199 0.589764523 0.726079831 104.201588 0.715591212 221.969552"></polygon>
        <g id="Group-3" transform="translate(51.000000, 87.000000)">
            <polygon id="Path-10" fill="#AF8A52" points="101.207006 16.6894486 101.207006 45.8357829 151.730695 73.2495149 151.730695 45.4085274"></polygon>
            <polygon id="Path-7" fill="#DAB173" points="0.572745646 134.107477 25.7326076 148.786925 203.183228 45.3037939 126.690854 0.903604472 101.124653 16.660985 151.836399 45.3037929"></polygon>
            <polygon id="Path-8" fill="#AF8A52" points="0.643126667 163.567791 25.7953045 178.659052 25.7953053 148.774745 0.643126667 134.039824"></polygon>
            <polygon id="Path-9" fill="#997237" points="203.019052 45.298152 203.00435 74.3145696 25.7978341 178.660136 25.7978341 148.727679"></polygon>
        </g>
        <polygon id="Path-12" fill="#676767" points="203.337694 15.7444693 177.840805 0.565632025 178.283545 88.2779733 203.337694 102.568455"></polygon>
        <polygon id="Path-12-Copy" fill="#676767" points="25.3376939 117.744469 0 103 0.926185972 222.646954 25.3376942 236.703613"></polygon>
        <g id="Group-4" transform="translate(90.000000, 90.000000)">
            <path d="M6.5,54.5757896 C10.0898509,54.5757896 13,52.5245943 13,49.9943168 C13,47.4640393 10.0898509,45.412844 6.5,45.412844 C2.91014913,45.412844 0,47.4640393 0,49.9943168 C0,52.5245943 2.91014913,54.5757896 6.5,54.5757896 Z" id="Oval-3" fill="#29771F"></path>
            <path d="M6.5,27.733886 C10.0898509,27.733886 13,25.1597747 13,21.9844475 C13,18.8091203 10.0898509,13.1192661 6.5,13.1192661 C2.91014913,13.1192661 0,18.8091203 0,21.9844475 C0,25.1597747 2.91014913,27.733886 6.5,27.733886 Z" id="Oval-3-Copy" fill="#29771F"></path>
            <rect id="Rectangle-14" fill="#29771F" x="0" y="21.1926606" width="13" height="29.189457"></rect>
            <rect id="Rectangle-14-Copy" fill="#29771F" x="3.5" y="2.01834862" width="6" height="29.189457"></rect>
            <path d="M3.29738075,3.3758469 C3.37330679,3.57280137 3.26023826,3.9850256 3.42085984,4.15665259 C3.52518649,4.26812745 4.02601194,4.09507151 4.16111572,4.19289235 C4.37899437,4.35064568 4.25422301,4.76741192 4.53889053,4.88171111 C4.84690659,5.00538516 5.18842665,4.67838247 5.55469526,4.73922968 C5.85530915,4.78916985 6.17285674,5.23822609 6.5,5.23822609 C6.74844241,5.23822609 6.87879793,4.76850835 7.11273494,4.73922968 C7.38010913,4.70576614 7.74845901,5.10848809 7.98985975,5.04098851 C8.32570416,4.94708094 8.35028326,4.45300856 8.61851385,4.30361702 C8.86987073,4.16362332 9.36961346,4.37132258 9.54443329,4.19289241 C9.67176402,4.06293209 9.62511972,3.64968394 9.70423503,3.50389568 C9.81608892,3.29777902 10.0280202,3.35217763 10.0280202,3.1237002 C10.0280202,2.81480801 9.90284873,2.02885268 9.70423503,1.76432689 C9.15195527,1.02876718 7.93309479,1.00917431 6.5,1.00917431 C5.17556107,1.00917431 3.90069843,1.11738261 3.29738075,1.76432689 C3.01311696,2.06914613 2.97197984,2.7496849 2.97197984,3.1237002 C2.97197984,3.28807064 3.23817309,3.22226043 3.29738075,3.3758469 Z" id="Oval-3-Copy-3" fill="#827E7E"></path>
            <path d="M6.5,4.22905178 C8.29858929,4.22905178 9.756634,3.28234629 9.756634,2.11452589 C9.756634,0.946705488 8.29858929,2.88657986e-14 6.5,2.88657986e-14 C4.70141071,2.88657986e-14 3.243366,0.946705488 3.243366,2.11452589 C3.243366,3.28234629 4.70141071,4.22905178 6.5,4.22905178 Z" id="Oval-3-Copy-2" fill="#EEEAEA"></path>
        </g>
        <path d="M81.5322265,72.6859917 C83.5974711,71.4723716 85.0965772,70.8852817 86.0295897,70.9247046 C86.9626021,70.9641275 87.4291014,71.6246526 87.4291014,72.9062996 C87.4291014,73.7762258 87.2249042,74.6100802 86.8165037,75.4078879 C86.4081033,76.2056956 85.8652376,76.8600533 85.1878905,77.3709807 L85.1878905,77.4705901 C86.1109419,77.1340286 86.7766579,77.1279797 87.1850584,77.4524433 C87.5934589,77.7769068 87.797656,78.4072955 87.797656,79.3436283 C87.797656,80.6717599 87.3178757,81.9896251 86.3583006,83.2972634 C85.3987255,84.6049017 84.0955159,85.7425909 82.4486327,86.7103652 L77,89.9121992 L77,75.3493088 L81.5322265,72.6859917 Z M81.8808593,78.2485039 C82.7175822,77.7568121 83.3235332,77.2712403 83.6987303,76.7917738 C84.0739275,76.3123073 84.2615233,75.7737525 84.2615233,75.1760933 C84.2615233,74.618278 84.0573261,74.3381787 83.6489257,74.3357871 C83.2405252,74.3333955 82.5947309,74.5916998 81.7115233,75.1107078 L80.0878906,76.0648192 L80.0878906,79.3021238 L81.8808593,78.2485039 Z M80.0878906,85.5476315 L82.0999999,84.3652358 C82.9500041,83.8657394 83.5775369,83.3342824 83.9826171,82.7708489 C84.3876972,82.2074154 84.5902342,81.5903547 84.5902342,80.9196482 C84.5902342,79.7110485 83.7269616,79.6140511 82.0003905,80.6286531 L80.0878906,81.7525144 L80.0878906,85.5476315 Z M98.5654293,73.7730863 L93.2562497,76.8929721 L92.2003903,80.9798434 L88.8734373,82.9348937 L94.0132809,65.2918605 L97.7884762,63.0734052 L102.948242,74.6639771 L99.6212886,76.6190274 L98.5654293,73.7730863 Z M96.1797848,67.256041 C96.0569326,66.9165131 95.9689452,66.6428306 95.91582,66.4349855 C95.6966782,67.4137661 95.0691455,69.8842662 94.0332028,73.8465597 L97.8283199,71.6163975 C96.8521432,69.0490066 96.302637,67.595569 96.1797848,67.256041 Z M108.865038,63.0887892 C109.841215,62.5151488 110.561716,61.9290602 111.026562,61.3305059 C111.491408,60.7319515 111.723827,60.0840495 111.723827,59.3867804 C111.723827,58.696152 111.486428,58.3442563 111.01162,58.331083 C110.536813,58.3179096 109.801372,58.6039923 108.805273,59.1893396 L107.868945,59.7395634 L107.868945,63.6741336 L108.865038,63.0887892 Z M107.868945,71.7723756 L104.781054,73.5869433 L104.781054,59.024053 L109.024413,56.5304858 C111.00333,55.3675957 112.467573,54.8673983 113.417187,55.0298786 C114.366801,55.1923588 114.841601,56.0073795 114.841601,57.4749649 C114.841601,58.3316098 114.605861,59.232144 114.134374,60.1765945 C113.662888,61.1210451 112.995511,62.0361659 112.132226,62.9219845 C114.323643,64.9080647 115.751363,66.1840973 116.415429,66.7501205 L112.988867,68.7637053 L109.512499,65.2184715 L107.868945,66.1842898 L107.868945,71.7723756 Z" id="BAR" fill="#FDFDFD"></path>
    </g>
</svg>
